<svg id="header_img" xmlns="http://www.w3.org/2000/svg" width="218" height="101.103" viewBox="0 0 218 101.103">
  <g id="Path_1" data-name="Path 1" transform="translate(76.958 68)" fill="none">
    <path d="M9.369,0H53.714a9.369,9.369,0,0,1,9.369,9.369V23.734A9.369,9.369,0,0,1,53.714,33.1H9.369A9.369,9.369,0,0,1,0,23.734V9.369A9.369,9.369,0,0,1,9.369,0Z" stroke="none"/>
    <path d="M 9.368766784667969 2.000003814697266 C 5.305614471435547 2.000003814697266 1.999996185302734 5.305612564086914 1.999996185302734 9.368762969970703 L 1.999996185302734 23.73420333862305 C 1.999996185302734 27.79735374450684 5.305614471435547 31.10296249389648 9.368766784667969 31.10296249389648 L 53.7142448425293 31.10296249389648 C 57.77739715576172 31.10296249389648 61.0830078125 27.79735374450684 61.0830078125 23.73420333862305 L 61.0830078125 9.368762969970703 C 61.0830078125 5.305612564086914 57.77739715576172 2.000003814697266 53.7142448425293 2.000003814697266 L 9.368766784667969 2.000003814697266 M 9.368766784667969 3.814697265625e-06 L 53.7142448425293 3.814697265625e-06 C 58.88846588134766 3.814697265625e-06 63.08300399780273 4.19453239440918 63.08300399780273 9.368762969970703 L 63.08300399780273 23.73420333862305 C 63.08300399780273 28.90842247009277 58.88846588134766 33.10296249389648 53.7142448425293 33.10296249389648 L 9.368766784667969 33.10296249389648 C 4.194534301757813 33.10296249389648 -3.814697265625e-06 28.90842247009277 -3.814697265625e-06 23.73420333862305 L -3.814697265625e-06 9.368762969970703 C -3.814697265625e-06 4.19453239440918 4.194534301757813 3.814697265625e-06 9.368766784667969 3.814697265625e-06 Z" stroke="none" fill="#26e1e8"/>
  </g>
  <g id="Path_2" data-name="Path 2" transform="translate(119.43 74.87) rotate(90)" fill="none">
    <path d="M9.993,0l9.993,17.488H0Z" stroke="none"/>
    <path d="M 9.99334716796875 2.015559196472168 L 1.723175048828125 16.48835945129395 L 18.26351928710938 16.48835945129395 L 9.99334716796875 2.015559196472168 M 9.99334716796875 0 L 19.98669624328613 17.48835945129395 L -1.9073486328125e-06 17.48835945129395 L 9.99334716796875 0 Z" stroke="none" fill="#26e1e8"/>
  </g>
  <text id="YouTube_Downloader" data-name="YouTube Downloader" transform="translate(0 21)" fill="#fff" font-size="20" font-family="Poppins-SemiBold, Poppins" font-weight="600"><tspan x="0" y="0">You</tspan><tspan y="0" fill="#26e1e8">Tube</tspan><tspan y="0" xml:space="preserve"> Downloader</tspan></text>
  <path id="Path_3" data-name="Path 3" d="M2162.942,103.914c46.468.282,100.136-.38,106.565,7.216" transform="translate(-2069 -69)" fill="none" stroke="#26e1e8" stroke-width="1"/>
</svg>
